# Blender v2.78 (sub 0) OBJ File: 'sword_3.blend'
# www.blender.org
mtllib sword_3.mtl
o sword_Cube
v 2.976717 0.603187 0.081032
v -3.679761 0.000000 0.059758
v -3.099418 -0.244930 0.059758
v -3.099418 0.244930 0.059758
v 3.025107 -0.244930 0.059758
v 3.025107 0.244930 0.059758
v 3.325265 -0.000000 -0.214572
v 3.325265 0.151726 -0.151726
v 3.325265 0.151726 0.151726
v 3.325265 -0.000000 0.214572
v 3.325265 -0.151726 0.151726
v 3.325265 -0.151726 -0.151726
v 3.509427 -0.000000 -0.101850
v 3.509427 0.072019 -0.072019
v 3.509427 0.072019 0.072019
v 3.509427 -0.000000 0.101850
v 3.509427 -0.072019 0.072019
v 3.509427 -0.072019 -0.072019
v 4.488833 -0.000000 -0.101850
v 4.488833 0.072019 -0.072019
v 4.488833 0.072019 0.072019
v 4.488833 -0.000000 0.101850
v 4.488833 -0.072019 0.072019
v 4.488833 -0.072019 -0.072019
v 4.698108 -0.000000 -0.134131
v 4.698108 0.094845 -0.094845
v 4.698108 0.094845 0.094845
v 4.698108 -0.000000 0.134131
v 4.698108 -0.094845 0.094845
v 4.698108 -0.094845 -0.094845
v 4.843205 -0.000000 -0.134131
v 4.843205 0.094845 -0.094845
v 4.843205 0.094845 0.094845
v 4.843205 -0.000000 0.134131
v 4.843205 -0.094845 0.094845
v 4.843205 -0.094845 -0.094845
v 3.509427 -0.000000 -0.181384
v 3.478765 -0.000000 -0.214572
v 3.478765 0.151726 -0.151726
v 3.509427 0.128258 -0.128258
v 3.478765 0.151726 0.151726
v 3.509427 0.128258 0.128258
v 3.478765 -0.000000 0.214572
v 3.509427 -0.000000 0.181384
v 3.478765 -0.151726 0.151726
v 3.509427 -0.128258 0.128258
v 3.478765 -0.151726 -0.151726
v 3.509427 -0.128258 -0.128258
v 4.519495 -0.000000 -0.171965
v 4.488833 -0.000000 -0.138776
v 4.488833 0.098130 -0.098130
v 4.519495 0.121598 -0.121598
v 4.488832 0.098130 0.098130
v 4.519495 0.121598 0.121598
v 4.488833 -0.000000 0.138776
v 4.519495 -0.000000 0.171965
v 4.488833 -0.098130 0.098130
v 4.519495 -0.121598 0.121598
v 4.488833 -0.098130 -0.098130
v 4.519495 -0.121598 -0.121598
v 4.667445 -0.000000 -0.171965
v 4.667445 0.121598 -0.121598
v 4.667445 0.121598 0.121598
v 4.667445 -0.000000 0.171965
v 4.667445 -0.121598 0.121598
v 4.667445 -0.121598 -0.121598
v 3.216280 0.110310 0.081032
v 3.216280 -0.110310 0.081032
v 2.841024 -0.603187 0.081032
v 2.841024 0.603187 0.081032
v 2.976717 -0.603187 0.081032
v 3.437046 0.000000 0.081032
v 3.025107 -0.100477 0.059758
v 3.025107 0.100477 0.059758
v 3.187132 -0.100477 0.071099
v 2.782198 -0.632335 0.071099
v 2.991139 0.632335 0.071099
v 2.782198 0.632335 0.071099
v 3.187132 0.100477 0.071099
v 2.991139 -0.632335 0.071099
v 3.473712 0.000000 0.071099
v -4.313725 0.000000 0.000000
v 3.417459 0.000000 0.000000
v 2.976717 0.603187 -0.081032
v -3.327713 -0.416140 0.000000
v -3.327713 0.416140 0.000000
v 3.025107 -0.416140 0.000000
v 3.025107 0.416140 0.000000
v -3.679761 0.000000 -0.059758
v -3.099418 -0.244930 -0.059758
v -3.099418 0.244930 -0.059758
v 3.025107 -0.244930 -0.059758
v 3.025107 0.244930 -0.059758
v 3.325265 -0.000000 0.214572
v 3.325265 0.151726 0.151726
v 3.325265 0.214572 0.000000
v 3.325265 0.151726 -0.151726
v 3.325265 -0.000000 -0.214572
v 3.325265 -0.151726 -0.151726
v 3.325265 -0.214572 0.000000
v 3.325265 -0.151726 0.151726
v 3.509427 -0.000000 0.101850
v 3.509427 0.072019 0.072019
v 3.509427 0.101850 0.000000
v 3.509427 0.072019 -0.072019
v 3.509427 -0.000000 -0.101850
v 3.509427 -0.072019 -0.072019
v 3.509427 -0.101850 0.000000
v 3.509427 -0.072019 0.072019
v 4.488833 -0.000000 0.101850
v 4.488833 0.072019 0.072019
v 4.488833 0.101850 0.000000
v 4.488833 0.072019 -0.072019
v 4.488833 -0.000000 -0.101850
v 4.488833 -0.072019 -0.072019
v 4.488833 -0.101850 0.000000
v 4.488833 -0.072019 0.072019
v 4.698108 -0.000000 0.134131
v 4.698108 0.094845 0.094845
v 4.698108 0.134131 0.000000
v 4.698108 0.094845 -0.094845
v 4.698108 -0.000000 -0.134131
v 4.698108 -0.094845 -0.094845
v 4.698108 -0.134131 0.000000
v 4.698108 -0.094845 0.094845
v 4.843205 -0.000000 0.134131
v 4.843205 0.094845 0.094845
v 4.843205 0.134131 0.000000
v 4.843205 0.094845 -0.094845
v 4.843205 -0.000000 -0.134131
v 4.843205 -0.094845 -0.094845
v 4.843205 -0.134131 0.000000
v 4.843205 -0.094845 0.094845
v 4.843205 -0.000000 0.000000
v 3.509427 -0.000000 0.181384
v 3.478765 -0.000000 0.214572
v 3.478765 0.151726 0.151726
v 3.509427 0.128258 0.128258
v 3.478765 0.214572 0.000000
v 3.509427 0.181384 0.000000
v 3.478765 0.151726 -0.151726
v 3.509427 0.128258 -0.128258
v 3.478765 -0.000000 -0.214572
v 3.509427 -0.000000 -0.181384
v 3.478765 -0.151726 -0.151726
v 3.509427 -0.128258 -0.128258
v 3.478765 -0.214572 0.000000
v 3.509427 -0.181384 0.000000
v 3.478765 -0.151726 0.151726
v 3.509427 -0.128258 0.128258
v 4.519495 -0.000000 0.171965
v 4.488833 -0.000000 0.138776
v 4.488833 0.098130 0.098130
v 4.519495 0.121598 0.121598
v 4.488833 0.138776 0.000000
v 4.519495 0.171965 0.000000
v 4.488832 0.098130 -0.098130
v 4.519495 0.121598 -0.121598
v 4.488833 -0.000000 -0.138776
v 4.519495 -0.000000 -0.171965
v 4.488833 -0.098130 -0.098130
v 4.519495 -0.121598 -0.121598
v 4.488833 -0.138776 0.000000
v 4.519495 -0.171965 0.000000
v 4.488833 -0.098130 0.098130
v 4.519495 -0.121598 0.121598
v 4.667445 -0.000000 0.171965
v 4.667445 0.121598 0.121598
v 4.667445 0.171965 0.000000
v 4.667445 0.121598 -0.121598
v 4.667445 -0.000000 -0.171965
v 4.667445 -0.121598 -0.121598
v 4.667445 -0.171965 0.000000
v 4.667445 -0.121598 0.121598
v 3.325264 0.000000 0.000000
v 3.216280 0.110310 -0.081032
v 3.216280 -0.110310 -0.081032
v 2.841024 -0.603187 -0.081032
v 2.841024 0.603187 -0.081032
v 2.976717 -0.603187 -0.081032
v 3.437046 0.000000 -0.081032
v 3.025107 -0.100477 -0.059758
v 3.025107 0.100477 -0.059758
v 3.187132 -0.100477 -0.071099
v 2.782198 -0.632335 -0.071099
v 2.991139 0.632335 -0.071099
v 2.782198 0.632335 -0.071099
v 3.187132 0.100477 -0.071099
v 2.991139 -0.632335 -0.071099
v 3.473712 0.000000 -0.071099
vn 0.0000 0.0000 1.0000
vn -0.0916 -0.2171 0.9719
vn -0.0916 0.2171 0.9719
vn 0.1506 0.0000 0.9886
vn 0.3299 0.3111 0.8913
vn 1.0000 0.0000 0.0000
vn 0.0000 0.3827 -0.9239
vn 0.0000 -0.9239 0.3827
vn 0.0000 0.3827 0.9239
vn 0.0000 0.9239 -0.3827
vn 0.0000 -0.9239 -0.3827
vn 0.0000 -0.3827 0.9239
vn 0.0000 0.9239 0.3827
vn 0.0000 -0.3827 -0.9239
vn -1.0000 0.0000 0.0000
vn 0.7517 0.2524 -0.6093
vn 0.7071 0.2706 -0.6533
vn 0.7071 0.6533 -0.2706
vn 0.7071 0.6533 0.2706
vn 0.7071 0.2706 0.6533
vn 0.7071 -0.2706 0.6533
vn 0.7071 -0.6533 0.2706
vn 0.7071 -0.6533 -0.2706
vn 0.7071 -0.2706 -0.6533
vn -0.7071 0.2706 -0.6533
vn -0.7071 0.6533 -0.2706
vn -0.7071 0.6533 0.2706
vn -0.7071 0.2706 0.6533
vn -0.7071 -0.2706 0.6533
vn -0.7071 -0.6533 0.2706
vn -0.7071 -0.6533 -0.2706
vn -0.7071 -0.2706 -0.6533
vn 0.7517 0.6093 -0.2524
vn 0.7517 0.6093 0.2524
vn 0.7517 0.2524 0.6093
vn 0.7517 -0.2524 0.6093
vn 0.7517 -0.6093 0.2524
vn 0.7517 -0.6093 -0.2524
vn 0.7517 -0.2524 -0.6093
vn -0.7956 -0.6058 0.0000
vn -0.7956 0.6058 0.0000
vn 0.0000 -1.0000 0.0000
vn 0.0000 1.0000 0.0000
vn 0.7950 0.6067 0.0000
vn 0.3299 -0.3111 0.8913
vn -0.0698 0.0000 0.9976
vn -0.2566 0.1954 0.9465
vn 0.0000 0.3226 0.9465
vn -0.2566 -0.1954 0.9465
vn 0.0000 -0.3226 0.9465
vn 0.2564 0.1957 0.9465
vn 0.2564 -0.1957 0.9465
vn -0.3226 0.0000 0.9465
vn 0.0000 -0.3295 0.9441
vn 0.0000 0.3295 0.9441
vn 0.0000 0.0000 -1.0000
vn -0.0916 -0.2171 -0.9719
vn -0.0916 0.2171 -0.9719
vn 0.1506 0.0000 -0.9886
vn 0.3299 0.3111 -0.8913
vn 0.3299 -0.3111 -0.8913
vn -0.0698 0.0000 -0.9976
vn -0.2566 0.1954 -0.9465
vn 0.0000 0.3226 -0.9465
vn -0.2566 -0.1954 -0.9465
vn 0.0000 -0.3226 -0.9465
vn 0.2564 0.1957 -0.9465
vn 0.2564 -0.1957 -0.9465
vn -0.3226 0.0000 -0.9465
vn 0.0000 -0.3295 -0.9441
vn 0.0000 0.3295 -0.9441
vn 0.7950 -0.6067 0.0000
usemtl None
s off
f 3//1 4//1 2//1
f 3//2 2//2 82//2 85//2
f 2//3 4//3 86//3 82//3
f 5//4 83//4 6//4
f 88//5 6//5 83//5
f 46//6 148//6 108//6 17//6
f 42//6 44//6 16//6 15//6
f 48//6 37//6 13//6 18//6
f 7//7 8//7 39//7 38//7
f 148//6 48//6 18//6 108//6
f 44//6 46//6 17//6 16//6
f 140//6 42//6 15//6 104//6
f 49//7 52//7 62//7 61//7
f 40//6 140//6 104//6 14//6
f 11//8 100//8 147//8 45//8
f 9//9 10//9 43//9 41//9
f 8//10 96//10 139//10 39//10
f 100//11 12//11 47//11 147//11
f 10//12 11//12 45//12 43//12
f 96//13 9//13 41//13 139//13
f 12//14 7//14 38//14 47//14
f 104//13 15//13 21//13 112//13
f 13//7 14//7 20//7 19//7
f 18//14 13//14 19//14 24//14
f 17//8 108//8 116//8 23//8
f 15//9 16//9 22//9 21//9
f 14//10 104//10 112//10 20//10
f 108//11 18//11 24//11 116//11
f 16//12 17//12 23//12 22//12
f 58//8 164//8 173//8 65//8
f 54//9 56//9 64//9 63//9
f 60//14 49//14 61//14 66//14
f 19//15 20//15 51//15 50//15
f 164//11 60//11 66//11 173//11
f 56//12 58//12 65//12 64//12
f 156//13 54//13 63//13 169//13
f 21//15 22//15 55//15 53//15
f 20//15 112//15 155//15 51//15
f 116//15 24//15 59//15 163//15
f 22//15 23//15 57//15 55//15
f 112//15 21//15 53//15 155//15
f 24//15 19//15 50//15 59//15
f 52//10 156//10 169//10 62//10
f 23//15 116//15 163//15 57//15
f 62//16 26//16 25//16 61//16
f 28//12 29//12 35//12 34//12
f 120//13 27//13 33//13 128//13
f 25//7 26//7 32//7 31//7
f 30//14 25//14 31//14 36//14
f 29//8 124//8 132//8 35//8
f 27//9 28//9 34//9 33//9
f 26//10 120//10 128//10 32//10
f 124//11 30//11 36//11 132//11
f 132//6 36//6 134//6
f 34//6 35//6 134//6
f 128//6 33//6 134//6
f 31//6 32//6 134//6
f 36//6 31//6 134//6
f 35//6 132//6 134//6
f 33//6 34//6 134//6
f 32//6 128//6 134//6
f 40//17 37//17 38//17 39//17
f 140//18 40//18 39//18 139//18
f 42//19 140//19 139//19 41//19
f 44//20 42//20 41//20 43//20
f 46//21 44//21 43//21 45//21
f 148//22 46//22 45//22 147//22
f 48//23 148//23 147//23 47//23
f 37//24 48//24 47//24 38//24
f 52//25 49//25 50//25 51//25
f 156//26 52//26 51//26 155//26
f 54//27 156//27 155//27 53//27
f 56//28 54//28 53//28 55//28
f 58//29 56//29 55//29 57//29
f 164//30 58//30 57//30 163//30
f 60//31 164//31 163//31 59//31
f 49//32 60//32 59//32 50//32
f 169//33 120//33 26//33 62//33
f 63//34 27//34 120//34 169//34
f 64//35 28//35 27//35 63//35
f 65//36 29//36 28//36 64//36
f 173//37 124//37 29//37 65//37
f 66//38 30//38 124//38 173//38
f 61//39 25//39 30//39 66//39
f 37//6 40//6 14//6 13//6
f 11//15 10//15 175//15
f 9//15 96//15 175//15
f 8//15 7//15 175//15
f 7//15 12//15 175//15
f 100//15 11//15 175//15
f 10//15 9//15 175//15
f 96//15 8//15 175//15
f 12//15 100//15 175//15
f 78//40 187//40 188//40 79//40
f 74//15 183//15 182//15 73//15
f 185//41 76//41 75//41 184//41
f 189//42 80//42 76//42 185//42
f 77//43 186//43 187//43 78//43
f 190//44 186//44 77//44 81//44
f 5//45 87//45 83//45
f 188//43 183//43 74//43 79//43
f 1//1 70//1 67//1 72//1
f 68//1 69//1 71//1 72//1
f 67//1 68//1 72//1
f 73//42 182//42 184//42 75//42
f 75//46 79//46 74//46 73//46
f 69//47 68//47 75//47 76//47
f 70//48 1//48 77//48 78//48
f 67//49 70//49 78//49 79//49
f 71//50 69//50 76//50 80//50
f 1//51 72//51 81//51 77//51
f 72//52 71//52 80//52 81//52
f 68//53 67//53 79//53 75//53
f 5//54 3//54 85//54 87//54
f 4//55 6//55 88//55 86//55
f 6//1 4//1 3//1 5//1
f 90//56 89//56 91//56
f 90//57 85//57 82//57 89//57
f 89//58 82//58 86//58 91//58
f 92//59 93//59 83//59
f 88//60 83//60 93//60
f 146//6 107//6 108//6 148//6
f 142//6 105//6 106//6 144//6
f 150//6 109//6 102//6 135//6
f 94//9 136//9 137//9 95//9
f 148//6 108//6 109//6 150//6
f 144//6 106//6 107//6 146//6
f 140//6 104//6 105//6 142//6
f 151//9 167//9 168//9 154//9
f 138//6 103//6 104//6 140//6
f 99//11 145//11 147//11 100//11
f 97//7 141//7 143//7 98//7
f 95//13 137//13 139//13 96//13
f 100//8 147//8 149//8 101//8
f 98//14 143//14 145//14 99//14
f 96//10 139//10 141//10 97//10
f 101//12 149//12 136//12 94//12
f 104//10 112//10 113//10 105//10
f 102//9 110//9 111//9 103//9
f 109//12 117//12 110//12 102//12
f 107//11 115//11 116//11 108//11
f 105//7 113//7 114//7 106//7
f 103//13 111//13 112//13 104//13
f 108//8 116//8 117//8 109//8
f 106//14 114//14 115//14 107//14
f 162//11 172//11 173//11 164//11
f 158//7 170//7 171//7 160//7
f 166//12 174//12 167//12 151//12
f 110//15 152//15 153//15 111//15
f 164//8 173//8 174//8 166//8
f 160//14 171//14 172//14 162//14
f 156//10 169//10 170//10 158//10
f 113//15 157//15 159//15 114//15
f 111//15 153//15 155//15 112//15
f 116//15 163//15 165//15 117//15
f 114//15 159//15 161//15 115//15
f 112//15 155//15 157//15 113//15
f 117//15 165//15 152//15 110//15
f 154//13 168//13 169//13 156//13
f 115//15 161//15 163//15 116//15
f 168//35 167//35 118//35 119//35
f 122//14 130//14 131//14 123//14
f 120//10 128//10 129//10 121//10
f 118//9 126//9 127//9 119//9
f 125//12 133//12 126//12 118//12
f 123//11 131//11 132//11 124//11
f 121//7 129//7 130//7 122//7
f 119//13 127//13 128//13 120//13
f 124//8 132//8 133//8 125//8
f 132//6 134//6 133//6
f 130//6 134//6 131//6
f 128//6 134//6 129//6
f 126//6 134//6 127//6
f 133//6 134//6 126//6
f 131//6 134//6 132//6
f 129//6 134//6 130//6
f 127//6 134//6 128//6
f 138//20 137//20 136//20 135//20
f 140//19 139//19 137//19 138//19
f 142//18 141//18 139//18 140//18
f 144//17 143//17 141//17 142//17
f 146//24 145//24 143//24 144//24
f 148//23 147//23 145//23 146//23
f 150//22 149//22 147//22 148//22
f 135//21 136//21 149//21 150//21
f 154//28 153//28 152//28 151//28
f 156//27 155//27 153//27 154//27
f 158//26 157//26 155//26 156//26
f 160//25 159//25 157//25 158//25
f 162//32 161//32 159//32 160//32
f 164//31 163//31 161//31 162//31
f 166//30 165//30 163//30 164//30
f 151//29 152//29 165//29 166//29
f 169//34 168//34 119//34 120//34
f 170//33 169//33 120//33 121//33
f 171//16 170//16 121//16 122//16
f 172//39 171//39 122//39 123//39
f 173//38 172//38 123//38 124//38
f 174//37 173//37 124//37 125//37
f 167//36 174//36 125//36 118//36
f 135//6 102//6 103//6 138//6
f 99//15 175//15 98//15
f 97//15 175//15 96//15
f 95//15 175//15 94//15
f 94//15 175//15 101//15
f 100//15 175//15 99//15
f 98//15 175//15 97//15
f 96//15 175//15 95//15
f 101//15 175//15 100//15
f 92//61 83//61 87//61
f 84//56 181//56 176//56 179//56
f 177//56 181//56 180//56 178//56
f 176//56 181//56 177//56
f 184//62 182//62 183//62 188//62
f 178//63 185//63 184//63 177//63
f 179//64 187//64 186//64 84//64
f 176//65 188//65 187//65 179//65
f 180//66 189//66 185//66 178//66
f 84//67 186//67 190//67 181//67
f 181//68 190//68 189//68 180//68
f 177//69 184//69 188//69 176//69
f 92//70 87//70 85//70 90//70
f 91//71 86//71 88//71 93//71
f 93//56 92//56 90//56 91//56
f 189//72 190//72 81//72 80//72
