# Blender v2.78 (sub 0) OBJ File: 'sword_8.blend'
# www.blender.org
mtllib sword_8.mtl
o sword_Cube
v 2.749396 0.094502 0.094502
v 1.587603 -0.453482 0.021428
v 1.587603 0.445506 0.021428
v -3.246627 -0.003988 0.027473
v 1.190036 -0.003988 0.045001
v 1.508090 -0.003988 0.031759
v 1.592121 0.094502 0.094502
v 1.592121 -0.000000 0.133646
v 1.592121 -0.094502 0.094502
v 2.749396 -0.000000 0.133646
v 2.749396 -0.094502 0.094502
v 2.764716 0.070524 0.070524
v 2.764716 -0.000000 0.099736
v 2.764716 -0.070524 0.070524
v 2.875365 0.077582 0.077582
v 2.875365 -0.000000 0.109717
v 2.875365 -0.077582 0.077582
v 2.979204 0.059545 0.059545
v 2.979204 -0.000000 0.084209
v 2.979204 -0.059545 0.059545
v 3.212418 0.108468 0.108468
v 3.212418 -0.000000 0.153397
v 3.212418 -0.108468 0.108468
v 3.231135 0.097515 0.097515
v 3.231135 -0.000000 0.137907
v 3.231135 -0.097515 0.097515
v 3.217979 0.083974 0.083974
v 3.217979 -0.000000 0.118757
v 3.217979 -0.083974 0.083974
v 3.314604 0.045064 0.045064
v 3.314604 -0.000000 0.063730
v 3.314604 -0.045064 0.045064
v 1.603809 -0.475292 0.045384
v 1.603809 0.467316 0.045384
v 1.510386 -0.475292 0.027917
v 1.510386 0.467316 0.027917
v 1.430873 -0.000000 0.107586
v 1.448142 0.094502 0.068442
v 1.446362 -0.094502 0.068442
v 0.760664 -0.327684 0.000000
v 0.760664 0.319708 0.000000
v -2.995032 0.217335 0.000000
v -2.995032 -0.225311 0.000000
v 1.190036 -0.394298 0.000000
v 1.190036 0.386322 0.000000
v 1.313282 -0.339094 0.000000
v 1.313282 0.331119 0.000000
v 2.749396 0.094502 -0.094502
v 2.749396 0.133646 0.000000
v 1.392795 -0.453482 0.000000
v 1.587603 -0.453482 -0.021428
v 1.587603 0.445506 -0.021428
v -3.246627 -0.003988 -0.027473
v -4.253008 -0.003988 0.000000
v 1.190036 -0.003988 -0.045001
v 1.508090 -0.003988 -0.031759
v 1.392795 0.445506 0.000000
v 1.587603 -0.453482 0.000000
v 1.508090 -0.003988 0.000000
v 1.587603 0.445506 0.000000
v 1.592121 0.133646 0.000000
v 1.592121 0.094502 -0.094502
v 1.592121 -0.000000 -0.133646
v 1.592121 -0.094502 -0.094502
v 1.592121 -0.133646 0.000000
v 2.749396 -0.000000 -0.133646
v 2.749396 -0.094502 -0.094502
v 2.749396 -0.133646 0.000000
v 2.764716 0.070524 -0.070524
v 2.764716 0.099736 0.000000
v 2.764716 -0.000000 -0.099736
v 2.764716 -0.070524 -0.070524
v 2.764716 -0.099736 0.000000
v 2.875365 0.077582 -0.077582
v 2.875365 0.109717 0.000000
v 2.875365 -0.000000 -0.109717
v 2.875365 -0.077582 -0.077582
v 2.875365 -0.109717 0.000000
v 2.979204 0.059545 -0.059545
v 2.979204 0.084209 0.000000
v 2.979204 -0.000000 -0.084209
v 2.979204 -0.059545 -0.059545
v 2.979204 -0.084209 0.000000
v 3.212418 0.108468 -0.108468
v 3.212418 0.153397 0.000000
v 3.212418 -0.000000 -0.153397
v 3.212418 -0.108468 -0.108468
v 3.212418 -0.153397 0.000000
v 3.231135 0.097515 -0.097515
v 3.231135 0.137907 0.000000
v 3.231135 -0.000000 -0.137907
v 3.231135 -0.097515 -0.097515
v 3.231135 -0.137907 0.000000
v 3.217979 0.083974 -0.083974
v 3.217979 0.118757 0.000000
v 3.217979 -0.000000 -0.118757
v 3.217979 -0.083974 -0.083974
v 3.217979 -0.118757 0.000000
v 3.314604 0.045064 -0.045064
v 3.314604 0.063730 0.000000
v 3.314604 -0.000000 -0.063730
v 3.314604 -0.045064 -0.045064
v 3.314604 -0.063730 0.000000
v 3.382390 0.000000 0.000000
v 1.603809 -0.475292 -0.045384
v 1.603809 0.467316 -0.045384
v 1.603809 -0.475292 0.000000
v 1.510386 -0.475292 -0.027917
v 1.603809 0.467316 0.000000
v 1.510386 0.467316 -0.027917
v 1.430873 -0.000000 -0.107586
v 1.510386 0.467316 0.000000
v 1.448142 0.094502 -0.068442
v 1.446362 -0.094502 -0.068442
v 1.510386 -0.475292 0.000000
v 1.430873 -0.000000 0.000000
v 1.448142 0.094502 0.000000
v 1.446362 -0.094502 0.000000
vn -0.0038 -0.1306 0.9914
vn -0.0270 -0.1533 0.9878
vn -0.0178 -0.1145 0.9933
vn 0.9847 0.1742 0.0000
vn -0.0966 -0.0455 0.9943
vn -0.0270 0.1533 0.9878
vn -0.0038 0.1306 0.9914
vn 0.0000 1.0000 0.0000
vn 0.0000 -1.0000 0.0000
vn 0.9847 -0.1742 0.0000
vn 0.0000 0.9239 0.3827
vn 0.0000 -0.3827 0.9239
vn 0.0444 0.1169 0.9921
vn 0.0444 -0.1169 0.9921
vn -0.0178 0.1145 0.9933
vn -0.0966 0.0455 0.9943
vn 0.0000 -0.9239 0.3827
vn 0.0000 0.3827 0.9239
vn 0.8983 -0.1681 0.4059
vn 0.8983 0.4059 0.1681
vn 0.8983 -0.4059 0.1681
vn 0.8983 0.1681 0.4059
vn -0.0830 0.9207 0.3814
vn -0.0830 -0.9207 0.3814
vn -0.0830 0.3814 0.9207
vn -0.0830 -0.3814 0.9207
vn 0.2213 0.3732 0.9010
vn 0.2213 -0.3732 0.9010
vn 0.2213 0.9010 0.3732
vn 0.2213 -0.9010 0.3732
vn -0.2643 -0.8910 0.3691
vn -0.2643 0.3691 0.8910
vn -0.2643 -0.3691 0.8910
vn -0.2643 0.8910 0.3691
vn 0.6074 -0.7339 0.3040
vn 0.6074 0.3040 0.7339
vn 0.6074 -0.3040 0.7339
vn 0.6074 0.7339 0.3040
vn 0.8025 0.2284 -0.5513
vn 0.8025 -0.5513 -0.2283
vn 0.8025 0.5513 -0.2283
vn 0.8025 -0.2284 -0.5513
vn 0.4656 0.3387 0.8176
vn 0.4656 -0.3387 0.8176
vn 0.4656 0.8176 0.3387
vn 0.4656 -0.8176 0.3387
vn 0.6558 -0.2889 0.6975
vn 0.6558 0.6975 0.2889
vn 0.6558 -0.6975 0.2889
vn 0.9994 -0.0337 -0.0094
vn 0.9994 0.0330 -0.0092
vn -0.1787 0.1349 0.9746
vn -0.1542 -0.3889 0.9083
vn -0.1550 0.3901 0.9076
vn -0.1775 -0.1324 0.9752
vn -0.9837 0.1798 0.0000
vn -0.9863 0.1647 0.0000
vn -0.9868 -0.1617 0.0000
vn -0.9862 -0.1658 0.0000
vn 0.6558 0.2889 0.6975
vn -0.0038 -0.1306 -0.9914
vn -0.0270 -0.1533 -0.9878
vn -0.0178 -0.1145 -0.9933
vn -0.0966 -0.0455 -0.9943
vn -0.0270 0.1533 -0.9878
vn -0.0038 0.1306 -0.9914
vn 0.0000 0.9239 -0.3827
vn 0.0000 -0.3827 -0.9239
vn 0.0444 0.1169 -0.9921
vn 0.0444 -0.1169 -0.9921
vn -0.0178 0.1145 -0.9933
vn -0.0966 0.0455 -0.9943
vn 0.0000 -0.9239 -0.3827
vn 0.0000 0.3827 -0.9239
vn 0.8983 -0.1681 -0.4059
vn 0.8983 0.4059 -0.1681
vn 0.8983 -0.4059 -0.1681
vn 0.8983 0.1681 -0.4059
vn -0.0830 0.9207 -0.3814
vn -0.0830 -0.9207 -0.3814
vn -0.0830 0.3814 -0.9207
vn -0.0830 -0.3814 -0.9207
vn 0.2213 0.3732 -0.9010
vn 0.2213 -0.3732 -0.9010
vn 0.2213 0.9010 -0.3732
vn 0.2213 -0.9010 -0.3732
vn -0.2643 -0.8910 -0.3691
vn -0.2643 0.3691 -0.8910
vn -0.2643 -0.3691 -0.8910
vn -0.2643 0.8910 -0.3691
vn 0.6074 -0.7339 -0.3040
vn 0.6074 0.3040 -0.7339
vn 0.6074 -0.3040 -0.7339
vn 0.6074 0.7339 -0.3040
vn 0.8025 0.2284 0.5513
vn 0.8025 -0.5513 0.2283
vn 0.8025 0.5513 0.2283
vn 0.8025 -0.2284 0.5513
vn 0.4656 0.3387 -0.8176
vn 0.4656 -0.3387 -0.8176
vn 0.4656 0.8176 -0.3387
vn 0.4656 -0.8176 -0.3387
vn 0.6558 -0.2889 -0.6975
vn 0.6558 0.6975 -0.2889
vn 0.6558 -0.6975 -0.2889
vn 0.9994 -0.0337 0.0094
vn 0.9994 0.0330 0.0092
vn -0.1787 0.1349 -0.9746
vn -0.1542 -0.3889 -0.9083
vn -0.1550 0.3901 -0.9076
vn -0.1775 -0.1324 -0.9752
vn 0.6558 0.2889 -0.6975
usemtl None
s off
f 4//1 43//1 40//1 5//1
f 54//2 43//2 4//2
f 40//3 44//3 5//3
f 6//4 2//4 58//4 59//4
f 46//5 50//5 2//5 6//5
f 42//6 54//6 4//6
f 42//7 4//7 5//7 41//7
f 57//8 3//8 60//8
f 2//9 50//9 58//9
f 3//10 6//10 59//10 60//10
f 61//11 7//11 1//11 49//11
f 8//12 9//12 11//12 10//12
f 5//13 6//13 47//13 45//13
f 6//14 5//14 44//14 46//14
f 45//15 41//15 5//15
f 47//16 6//16 3//16 57//16
f 9//17 65//17 68//17 11//17
f 7//18 8//18 10//18 1//18
f 10//19 11//19 14//19 13//19
f 49//20 1//20 12//20 70//20
f 11//21 68//21 73//21 14//21
f 1//22 10//22 13//22 12//22
f 70//23 12//23 15//23 75//23
f 14//24 73//24 78//24 17//24
f 12//25 13//25 16//25 15//25
f 13//26 14//26 17//26 16//26
f 15//27 16//27 19//27 18//27
f 16//28 17//28 20//28 19//28
f 75//29 15//29 18//29 80//29
f 17//30 78//30 83//30 20//30
f 20//31 83//31 88//31 23//31
f 18//32 19//32 22//32 21//32
f 19//33 20//33 23//33 22//33
f 80//34 18//34 21//34 85//34
f 23//35 88//35 93//35 26//35
f 21//36 22//36 25//36 24//36
f 22//37 23//37 26//37 25//37
f 85//38 21//38 24//38 90//38
f 25//39 26//39 29//39 28//39
f 90//40 24//40 27//40 95//40
f 26//41 93//41 98//41 29//41
f 24//42 25//42 28//42 27//42
f 27//43 28//43 31//43 30//43
f 28//44 29//44 32//44 31//44
f 95//45 27//45 30//45 100//45
f 29//46 98//46 103//46 32//46
f 32//47 104//47 31//47
f 30//48 104//48 100//48
f 103//49 104//49 32//49
f 61//50 109//50 34//50 7//50
f 9//51 33//51 107//51 65//51
f 7//52 34//52 36//52 38//52
f 34//8 109//8 112//8 36//8
f 107//9 33//9 35//9 115//9
f 9//53 8//53 37//53 39//53
f 8//54 7//54 38//54 37//54
f 33//55 9//55 39//55 35//55
f 37//56 38//56 117//56 116//56
f 38//57 36//57 112//57 117//57
f 39//58 37//58 116//58 118//58
f 35//59 39//59 118//59 115//59
f 31//60 104//60 30//60
f 53//61 55//61 40//61 43//61
f 54//62 53//62 43//62
f 40//63 55//63 44//63
f 56//4 59//4 58//4 51//4
f 46//64 56//64 51//64 50//64
f 42//65 53//65 54//65
f 42//66 41//66 55//66 53//66
f 57//8 60//8 52//8
f 51//9 58//9 50//9
f 52//10 60//10 59//10 56//10
f 61//67 49//67 48//67 62//67
f 63//68 66//68 67//68 64//68
f 55//69 45//69 47//69 56//69
f 56//70 46//70 44//70 55//70
f 45//71 55//71 41//71
f 47//72 57//72 52//72 56//72
f 64//73 67//73 68//73 65//73
f 62//74 48//74 66//74 63//74
f 66//75 71//75 72//75 67//75
f 49//76 70//76 69//76 48//76
f 67//77 72//77 73//77 68//77
f 48//78 69//78 71//78 66//78
f 70//79 75//79 74//79 69//79
f 72//80 77//80 78//80 73//80
f 69//81 74//81 76//81 71//81
f 71//82 76//82 77//82 72//82
f 74//83 79//83 81//83 76//83
f 76//84 81//84 82//84 77//84
f 75//85 80//85 79//85 74//85
f 77//86 82//86 83//86 78//86
f 82//87 87//87 88//87 83//87
f 79//88 84//88 86//88 81//88
f 81//89 86//89 87//89 82//89
f 80//90 85//90 84//90 79//90
f 87//91 92//91 93//91 88//91
f 84//92 89//92 91//92 86//92
f 86//93 91//93 92//93 87//93
f 85//94 90//94 89//94 84//94
f 91//95 96//95 97//95 92//95
f 90//96 95//96 94//96 89//96
f 92//97 97//97 98//97 93//97
f 89//98 94//98 96//98 91//98
f 94//99 99//99 101//99 96//99
f 96//100 101//100 102//100 97//100
f 95//101 100//101 99//101 94//101
f 97//102 102//102 103//102 98//102
f 102//103 101//103 104//103
f 99//104 100//104 104//104
f 103//105 102//105 104//105
f 61//106 62//106 106//106 109//106
f 64//107 65//107 107//107 105//107
f 62//108 113//108 110//108 106//108
f 106//8 110//8 112//8 109//8
f 107//9 115//9 108//9 105//9
f 64//109 114//109 111//109 63//109
f 63//110 111//110 113//110 62//110
f 105//111 108//111 114//111 64//111
f 111//56 116//56 117//56 113//56
f 113//57 117//57 112//57 110//57
f 114//58 118//58 116//58 111//58
f 108//59 115//59 118//59 114//59
f 101//112 99//112 104//112
